<?xml version="1.0" encoding="UTF-8" standalone="no"?>
<svg
   xmlns:osb="http://www.openswatchbook.org/uri/2009/osb"
   xmlns:dc="http://purl.org/dc/elements/1.1/"
   xmlns:cc="http://creativecommons.org/ns#"
   xmlns:rdf="http://www.w3.org/1999/02/22-rdf-syntax-ns#"
   xmlns:svg="http://www.w3.org/2000/svg"
   xmlns="http://www.w3.org/2000/svg"
   xmlns:sodipodi="http://sodipodi.sourceforge.net/DTD/sodipodi-0.dtd"
   xmlns:inkscape="http://www.inkscape.org/namespaces/inkscape"
   height="16"
   id="svg7384"
   style="enable-background:new"
   version="1.1"
   width="16"
   sodipodi:docname="window-close-symbolic.svg"
   inkscape:version="0.92.4 (5da689c313, 2019-01-14)">
  <sodipodi:namedview
     pagecolor="#ffffff"
     bordercolor="#666666"
     borderopacity="1"
     objecttolerance="10"
     gridtolerance="10"
     guidetolerance="10"
     inkscape:pageopacity="0"
     inkscape:pageshadow="2"
     inkscape:window-width="2560"
     inkscape:window-height="1378"
     id="namedview22"
     showgrid="false"
     inkscape:zoom="14.75"
     inkscape:cx="8.9491525"
     inkscape:cy="8"
     inkscape:window-x="0"
     inkscape:window-y="32"
     inkscape:window-maximized="1"
     inkscape:current-layer="svg7384" />
  <metadata
     id="metadata90">
    <rdf:RDF>
      <cc:Work
         rdf:about="">
        <dc:format>image/svg+xml</dc:format>
        <dc:type
           rdf:resource="http://purl.org/dc/dcmitype/StillImage" />
        <dc:title>Pop Symbolic Icon Theme</dc:title>
        <cc:license
           rdf:resource="http://creativecommons.org/licenses/by-sa/4.0/" />
      </cc:Work>
      <cc:License
         rdf:about="http://creativecommons.org/licenses/by-sa/4.0/">
        <cc:permits
           rdf:resource="http://creativecommons.org/ns#Reproduction" />
        <cc:permits
           rdf:resource="http://creativecommons.org/ns#Distribution" />
        <cc:requires
           rdf:resource="http://creativecommons.org/ns#Notice" />
        <cc:requires
           rdf:resource="http://creativecommons.org/ns#Attribution" />
        <cc:permits
           rdf:resource="http://creativecommons.org/ns#DerivativeWorks" />
        <cc:requires
           rdf:resource="http://creativecommons.org/ns#ShareAlike" />
      </cc:License>
    </rdf:RDF>
  </metadata>
  <title
     id="title8473">Pop Symbolic Icon Theme</title>
  <defs
     id="defs7386">
    <linearGradient
       id="linearGradient6882"
       osb:paint="solid">
      <stop
         id="stop6884"
         offset="0"
         style="stop-color:#555555;stop-opacity:1;" />
    </linearGradient>
    <linearGradient
       id="linearGradient5606"
       osb:paint="solid">
      <stop
         id="stop5608"
         offset="0"
         style="stop-color:#000000;stop-opacity:1;" />
    </linearGradient>
    <filter
       id="filter7554"
       style="color-interpolation-filters:sRGB">
      <feBlend
         id="feBlend7556"
         in2="BackgroundImage"
         mode="darken" />
    </filter>
  </defs>
  <g
     id="layer9"
     style="display:inline"
     transform="translate(-264.99977,-164.99999)" />
  <g
     id="layer10"
     style="display:inline;filter:url(#filter7554)"
     transform="translate(-264.99977,-164.99999)" />
  <g
     id="layer1"
     style="display:inline"
     transform="translate(-23.999573,-781.99999)" />
  <g
     id="layer14"
     style="display:inline"
     transform="translate(-264.99977,-164.99999)" />
  <g
     id="layer15"
     style="display:inline"
     transform="translate(-264.99977,-164.99999)" />
  <g
     id="g71291"
     style="display:inline"
     transform="translate(-264.99977,-164.99999)" />
  <g
     id="layer2"
     style="display:inline"
     transform="translate(-23.999573,-631.99999)" />
  <g
     id="layer3"
     transform="translate(-23.999573,-891.99999)" />
  <g
     id="layer12"
     style="display:inline;fill:#ffffff;fill-opacity:1"
     transform="matrix(1.9067796,0,0,1.881356,-512.58414,-317.47714)">
    <path
       d="m 269.99958,169.00292 a 1,1 0 0 0 -1,1 1,1 0 0 0 0.29297,0.70703 l 2.29297,2.29297 -2.29297,2.29297 a 1,1 0 0 0 -0.29297,0.70703 1,1 0 0 0 1,1 1,1 0 0 0 0.70703,-0.29297 l 2.29297,-2.29297 2.2832,2.28321 a 1,1 0 0 0 0.7168,0.30273 1,1 0 0 0 1,-1 1,1 0 0 0 -0.29297,-0.70703 l -2.29297,-2.29297 2.28321,-2.2832 a 1,1 0 0 0 0.30273,-0.7168 1,1 0 0 0 -1,-1 1,1 0 0 0 -0.70703,0.29297 l -2.29297,2.29297 -2.2832,-2.28321 a 1,1 0 0 0 -0.01,-0.01 1,1 0 0 0 -0.707,-0.29273 z"
       id="path5403"
       style="display:inline;opacity:1;fill:#ffffff;fill-opacity:1;stroke:none;stroke-width:2;stroke-linecap:square;stroke-linejoin:round;stroke-miterlimit:4;stroke-dasharray:none;stroke-opacity:1;enable-background:new"
       inkscape:connector-curvature="0" />
  </g>
</svg>
